<svg width="229" height="201" viewBox="0 0 229 201" fill="none" xmlns="http://www.w3.org/2000/svg">
<path d="M45.5718 31.4402C35.5513 48.7149 24.4941 68.0627 21.0388 74.2816L14.6464 85.6829L22.2482 98.9845C26.5674 106.24 30.0227 112.632 30.0227 113.15C30.0227 113.668 23.6303 114.014 15.683 114.014C7.73567 114.014 0.824953 114.532 0.133882 115.05C-0.384422 115.568 0.652185 118.505 2.37986 121.442C3.93477 124.551 14.9919 143.553 26.5674 163.592L47.645 200.387H97.0566H146.641L154.07 187.777C158.044 181.04 161.672 174.475 161.845 173.612C162.017 172.575 155.452 171.539 145.95 171.02L129.71 170.157L113.988 142.517L98.0932 114.877L82.1986 114.359C70.7959 114.014 66.304 114.532 66.304 115.914C66.304 117.123 72.8691 129.561 80.9892 143.553C89.1093 157.719 95.6745 169.638 95.6745 170.157C95.6745 170.675 88.591 170.848 79.7799 170.675L63.8852 170.157L52.137 150.291C45.7446 139.407 38.3156 126.451 35.8968 121.787L31.2321 113.15L38.6611 101.057C42.6348 94.3203 47.1267 87.9287 48.6816 86.7194C50.5821 85.3375 60.2571 84.6465 82.8897 84.6465H114.333L121.417 72.3814C125.391 65.6442 128.5 59.4253 128.5 58.5616C128.5 57.6978 115.024 57.0068 97.4022 57.0068C73.3874 57.0068 66.304 56.4886 66.304 54.7611C66.304 53.5519 69.7593 47.1602 73.733 40.5958L81.3348 28.5034L114.161 27.9852L147.159 27.6397L155.107 42.1505L163.227 56.8341L146.814 85.3375C128.5 117.296 129.191 112.113 140.94 132.67C145.259 140.271 146.641 141.48 148.369 139.58C150.269 137.507 168.928 105.549 174.629 94.6658C179.467 85.1647 181.195 86.2012 190.87 104.512L196.225 114.877L190.697 124.378C185.168 133.707 181.713 139.58 175.32 150.982C173.42 154.264 169.792 160.137 167.373 164.11L162.881 171.193L171.001 184.84C175.666 192.441 179.812 198.66 180.331 198.66C180.849 198.66 182.922 195.723 184.995 192.096C186.896 188.641 190.006 182.94 191.906 179.658C193.807 176.376 202.963 160.655 212.12 144.935C221.277 129.043 228.706 115.223 228.706 114.186C228.706 112.459 218.858 94.8386 199.335 61.3255C197.608 58.3888 192.943 50.2697 188.796 43.187C184.823 36.1043 180.504 29.7127 179.64 29.0217C178.603 28.3307 171.347 27.6397 163.572 27.6397C148.369 27.6397 146.987 26.6032 151.479 19.8661C152.688 17.9658 155.97 12.7834 158.562 8.11921L163.227 6.56843e-05H113.47H63.5397L45.5718 31.4402Z" fill="#F5F5F5"/>
</svg>
