<svg width="211" height="202" viewBox="0 0 211 202" fill="none" xmlns="http://www.w3.org/2000/svg">
<path d="M93.0822 5.76662C81.6795 12.5038 20.3469 47.9171 7.56209 55.1725L0.65138 59.1457L0.133076 79.3572C-0.21246 97.4957 -0.0396917 99.5686 2.55183 98.5322C3.93397 98.0139 23.6295 86.9581 46.0893 74.002C68.7219 61.0459 89.4541 48.9536 92.3911 47.3988C95.3282 45.6713 99.4746 43.2529 101.548 41.8709C104.83 39.9707 106.04 40.1434 111.741 43.2529C123.489 49.8173 195.879 91.795 201.926 95.4227C205.209 97.4957 208.491 99.2231 209.355 99.2231C210.046 99.2231 210.564 90.413 210.564 79.5299C210.564 57.7637 211.601 59.6639 196.397 51.0265C193.288 49.2991 172.383 37.3795 150.096 24.4234C127.636 11.4673 108.286 0.58419 106.904 0.0659468C105.521 -0.452296 99.3018 2.13892 93.0822 5.76662Z" fill="#EA4256"/>
<path d="M101.548 82.6393C90.1451 88.5128 72.3501 99.5686 72.3501 100.605C72.3501 101.469 87.2081 110.452 105.176 120.817C123.317 131.181 137.829 140.51 137.484 141.546C136.965 143.101 129.363 147.938 112.778 157.266L105.694 161.24L97.2286 156.748C92.5639 154.33 86.8626 151.047 84.4438 149.32C76.4965 143.965 36.5871 121.68 34.8594 121.68C31.9224 121.68 2.72461 139.646 2.72461 141.546C2.72461 142.41 4.97059 144.483 7.73488 146.038C17.5826 151.566 25.3572 156.057 63.8844 178.514C85.4804 190.952 104.139 201.144 105.349 201.144C106.731 201.144 126.772 190.088 150.096 176.787C173.419 163.313 195.188 150.875 198.471 148.974C205.209 145.174 209.873 141.201 208.664 139.992C207.973 139.301 114.505 85.0578 108.631 81.9483C106.904 80.9119 104.139 81.2574 101.548 82.6393Z" fill="#6DEEED"/>
</svg>
